<svg width="24" height="25" viewBox="0 0 24 16" fill="none" xmlns="http://www.w3.org/2000/svg">
<path fill-rule="evenodd" clip-rule="evenodd" d="M14.8473 6.51429H7.63637V9.12001H11.9673C11.7927 10.2383 10.6582 12.3989 7.63637 12.3989C5.0291 12.3989 2.90182 10.2492 2.90182 7.60001C2.90182 4.95086 5.0291 2.80115 7.63637 2.80115C9.12001 2.80115 10.1127 3.43086 10.68 3.97372L12.7527 1.98686C11.4218 0.749143 9.69819 0 7.63637 0C3.41455 0 0 3.39829 0 7.60001C0 11.8017 3.41455 15.2 7.63637 15.2C12.0436 15.2 14.9673 12.1166 14.9673 7.77372C14.9673 7.27429 14.9127 6.89429 14.8473 6.51429ZM24 8.68571V6.51428H21.8182V4.34285H19.6364V6.51428H17.4546V8.68571H19.6364V10.8571H21.8182V8.68571H24Z" fill="#fff"/>
</svg>
