<svg width="24" height="25" viewBox="0 0 24 20" fill="none" xmlns="http://www.w3.org/2000/svg">
<path d="M11.2812 5.10749L11.3316 5.93795L10.4922 5.83626C7.43686 5.44645 4.76765 4.12451 2.50134 1.90431L1.39336 0.802683L1.10798 1.61619C0.503625 3.42963 0.889737 5.34477 2.1488 6.63282C2.8203 7.34464 2.66921 7.44633 1.51087 7.02262C1.10798 6.88704 0.755437 6.78535 0.721862 6.8362C0.60435 6.95483 1.00725 8.49711 1.32621 9.10724C1.76269 9.95464 2.65242 10.7851 3.6261 11.2766L4.44869 11.6664L3.47501 11.6833C2.53491 11.6833 2.50134 11.7003 2.60206 12.0562C2.93781 13.1578 4.26403 14.3272 5.74132 14.8357L6.78215 15.1916L5.87563 15.7339C4.53263 16.5135 2.9546 16.9542 1.37657 16.9881C0.621138 17.005 0 17.0728 0 17.1237C0 17.2932 2.04807 18.2422 3.23999 18.6151C6.81573 19.7167 11.063 19.2422 14.2526 17.3609C16.5189 16.022 18.7852 13.3612 19.8428 10.7851C20.4136 9.4123 20.9844 6.90399 20.9844 5.70068C20.9844 4.92106 21.0347 4.81938 21.9748 3.88723C22.5288 3.34489 23.0492 2.75171 23.15 2.58223C23.3178 2.26022 23.3011 2.26022 22.4449 2.54833C21.018 3.05678 20.8165 2.98898 21.5216 2.22632C22.042 1.68398 22.6631 0.700995 22.6631 0.412878C22.6631 0.362034 22.4113 0.446774 22.1259 0.599307C21.8237 0.768787 21.1523 1.02301 20.6486 1.17554L19.7421 1.46366L18.9195 0.904372C18.4663 0.599307 17.8283 0.260345 17.4926 0.158657C16.6364 -0.0786161 15.327 -0.04472 14.5548 0.226449C12.4563 0.989112 11.1301 2.95509 11.2812 5.10749Z" fill="#fff"/>
</svg>
